<mxfile host="app.diagrams.net" modified="2023-01-05T08:14:22.488Z" agent="5.0 (Windows NT 10.0; Win64; x64) AppleWebKit/537.36 (KHTML, like Gecko) Chrome/108.0.0.0 Safari/537.36" version="20.8.1" etag="gAMXub-lSeusistbTnsE" type="github">
  <diagram id="xfnueDyBU45pbn4OBLwx" name="第 1 页">
    <mxGraphModel dx="786" dy="629" grid="1" gridSize="10" guides="1" tooltips="1" connect="1" arrows="1" fold="1" page="1" pageScale="1" pageWidth="827" pageHeight="1169" math="0" shadow="0">
      <root>
        <mxCell id="0" />
        <mxCell id="1" parent="0" />
        <mxCell id="b7YXW5oOEjvJ8driE_tI-1" value="Actor" style="shape=umlActor;verticalLabelPosition=bottom;verticalAlign=top;html=1;outlineConnect=0;" vertex="1" parent="1">
          <mxGeometry x="85" y="60" width="30" height="60" as="geometry" />
        </mxCell>
        <mxCell id="b7YXW5oOEjvJ8driE_tI-2" value="" style="shape=flexArrow;endArrow=classic;html=1;rounded=0;" edge="1" parent="1">
          <mxGeometry width="50" height="50" relative="1" as="geometry">
            <mxPoint x="120" y="140" as="sourcePoint" />
            <mxPoint x="180" y="140" as="targetPoint" />
          </mxGeometry>
        </mxCell>
        <mxCell id="b7YXW5oOEjvJ8driE_tI-3" value="" style="rounded=0;whiteSpace=wrap;html=1;" vertex="1" parent="1">
          <mxGeometry x="190" y="110" width="120" height="60" as="geometry" />
        </mxCell>
        <mxCell id="b7YXW5oOEjvJ8driE_tI-5" value="" style="shape=flexArrow;endArrow=classic;html=1;rounded=0;" edge="1" parent="1">
          <mxGeometry width="50" height="50" relative="1" as="geometry">
            <mxPoint x="320" y="139.5" as="sourcePoint" />
            <mxPoint x="380" y="139.5" as="targetPoint" />
          </mxGeometry>
        </mxCell>
        <mxCell id="b7YXW5oOEjvJ8driE_tI-7" value="" style="rounded=1;whiteSpace=wrap;html=1;" vertex="1" parent="1">
          <mxGeometry x="390" y="110" width="120" height="200" as="geometry" />
        </mxCell>
        <mxCell id="b7YXW5oOEjvJ8driE_tI-8" value="" style="rounded=1;whiteSpace=wrap;html=1;" vertex="1" parent="1">
          <mxGeometry x="520" y="110" width="120" height="200" as="geometry" />
        </mxCell>
        <mxCell id="b7YXW5oOEjvJ8driE_tI-12" value="" style="shape=flexArrow;endArrow=classic;html=1;rounded=0;endWidth=45;endSize=16;width=32;" edge="1" parent="1">
          <mxGeometry x="-0.5556" y="-30" width="50" height="50" relative="1" as="geometry">
            <mxPoint x="514.5" y="320" as="sourcePoint" />
            <mxPoint x="514.5" y="410" as="targetPoint" />
            <mxPoint as="offset" />
          </mxGeometry>
        </mxCell>
        <mxCell id="b7YXW5oOEjvJ8driE_tI-13" value="" style="rounded=0;whiteSpace=wrap;html=1;" vertex="1" parent="1">
          <mxGeometry x="460" y="420" width="110" height="130" as="geometry" />
        </mxCell>
        <mxCell id="b7YXW5oOEjvJ8driE_tI-14" value="" style="rounded=0;whiteSpace=wrap;html=1;" vertex="1" parent="1">
          <mxGeometry x="750" y="420" width="50" height="130" as="geometry" />
        </mxCell>
        <mxCell id="b7YXW5oOEjvJ8driE_tI-15" value="" style="shape=flexArrow;endArrow=classic;html=1;rounded=0;" edge="1" parent="1">
          <mxGeometry width="50" height="50" relative="1" as="geometry">
            <mxPoint x="580" y="484.5" as="sourcePoint" />
            <mxPoint x="640" y="484.5" as="targetPoint" />
          </mxGeometry>
        </mxCell>
        <mxCell id="b7YXW5oOEjvJ8driE_tI-16" value="" style="rounded=0;whiteSpace=wrap;html=1;" vertex="1" parent="1">
          <mxGeometry x="650" y="420" width="50" height="130" as="geometry" />
        </mxCell>
        <mxCell id="b7YXW5oOEjvJ8driE_tI-17" value="camera" style="rounded=0;whiteSpace=wrap;html=1;" vertex="1" parent="1">
          <mxGeometry x="90" y="371" width="60" height="30" as="geometry" />
        </mxCell>
        <mxCell id="b7YXW5oOEjvJ8driE_tI-18" value="" style="rounded=0;whiteSpace=wrap;html=1;" vertex="1" parent="1">
          <mxGeometry x="80" y="160" width="40" height="60" as="geometry" />
        </mxCell>
        <mxCell id="b7YXW5oOEjvJ8driE_tI-19" value="Actor" style="shape=umlActor;verticalLabelPosition=bottom;verticalAlign=top;html=1;outlineConnect=0;" vertex="1" parent="1">
          <mxGeometry x="105" y="451" width="30" height="60" as="geometry" />
        </mxCell>
        <mxCell id="b7YXW5oOEjvJ8driE_tI-20" value="" style="endArrow=classic;html=1;rounded=0;" edge="1" parent="1">
          <mxGeometry width="50" height="50" relative="1" as="geometry">
            <mxPoint x="119.5" y="401" as="sourcePoint" />
            <mxPoint x="119.5" y="451" as="targetPoint" />
          </mxGeometry>
        </mxCell>
        <mxCell id="b7YXW5oOEjvJ8driE_tI-21" value="camera" style="rounded=0;whiteSpace=wrap;html=1;" vertex="1" parent="1">
          <mxGeometry x="90" y="561" width="60" height="30" as="geometry" />
        </mxCell>
        <mxCell id="b7YXW5oOEjvJ8driE_tI-23" value="" style="endArrow=classic;html=1;rounded=0;" edge="1" parent="1">
          <mxGeometry width="50" height="50" relative="1" as="geometry">
            <mxPoint x="119.5" y="561" as="sourcePoint" />
            <mxPoint x="120" y="531" as="targetPoint" />
          </mxGeometry>
        </mxCell>
        <mxCell id="b7YXW5oOEjvJ8driE_tI-24" value="" style="shape=flexArrow;endArrow=classic;html=1;rounded=0;" edge="1" parent="1">
          <mxGeometry x="1" y="-104" width="50" height="50" relative="1" as="geometry">
            <mxPoint x="160" y="480.5" as="sourcePoint" />
            <mxPoint x="200" y="481" as="targetPoint" />
            <mxPoint x="101" y="-74" as="offset" />
          </mxGeometry>
        </mxCell>
        <mxCell id="b7YXW5oOEjvJ8driE_tI-25" value="Actor" style="shape=umlActor;verticalLabelPosition=bottom;verticalAlign=top;html=1;outlineConnect=0;" vertex="1" parent="1">
          <mxGeometry x="220" y="451" width="30" height="60" as="geometry" />
        </mxCell>
        <mxCell id="b7YXW5oOEjvJ8driE_tI-26" value="" style="shape=flexArrow;endArrow=classic;html=1;rounded=0;" edge="1" parent="1">
          <mxGeometry x="1" y="-104" width="50" height="50" relative="1" as="geometry">
            <mxPoint x="270" y="480.5" as="sourcePoint" />
            <mxPoint x="310" y="481" as="targetPoint" />
            <mxPoint x="101" y="-74" as="offset" />
          </mxGeometry>
        </mxCell>
        <mxCell id="b7YXW5oOEjvJ8driE_tI-28" value="Actor" style="shape=umlActor;verticalLabelPosition=bottom;verticalAlign=top;html=1;outlineConnect=0;" vertex="1" parent="1">
          <mxGeometry x="330" y="451" width="30" height="60" as="geometry" />
        </mxCell>
        <mxCell id="b7YXW5oOEjvJ8driE_tI-29" value="" style="shape=flexArrow;endArrow=classic;html=1;rounded=0;" edge="1" parent="1">
          <mxGeometry x="1" y="-104" width="50" height="50" relative="1" as="geometry">
            <mxPoint x="380" y="480.5" as="sourcePoint" />
            <mxPoint x="420" y="481" as="targetPoint" />
            <mxPoint x="101" y="-74" as="offset" />
          </mxGeometry>
        </mxCell>
      </root>
    </mxGraphModel>
  </diagram>
</mxfile>
